<svg width="33" height="26" viewBox="0 0 33 26" fill="none" xmlns="http://www.w3.org/2000/svg">
<mask id="path-1-inside-1_2028_434" fill="white">
<path d="M16.5 0C24.6582 0 31.3895 2.03561 32.375 4.66602H32.5V21.332H32.376C31.3932 23.9634 24.6603 26 16.5 26C8.33966 26 1.60679 23.9634 0.624023 21.332H0.5V4.66602H0.625C1.61049 2.03561 8.34177 7.93121e-08 16.5 0Z"/>
</mask>
<path d="M16.5 0V-2V0ZM32.375 4.66602L30.5021 5.36769L30.9885 6.66602H32.375V4.66602ZM32.5 4.66602H34.5V2.66602H32.5V4.66602ZM32.5 21.332V23.332H34.5V21.332H32.5ZM32.376 21.332V19.332H30.988L30.5024 20.6323L32.376 21.332ZM16.5 26V28V26ZM0.624023 21.332L2.49762 20.6323L2.012 19.332H0.624023V21.332ZM0.5 21.332H-1.5V23.332H0.5V21.332ZM0.5 4.66602V2.66602H-1.5V4.66602H0.5ZM0.625 4.66602V6.66602H2.01145L2.49787 5.36769L0.625 4.66602ZM16.5 0V2C20.4307 2 23.9555 2.49236 26.5588 3.26412C27.8643 3.65113 28.8709 4.08873 29.566 4.52321C30.2986 4.98116 30.4784 5.30433 30.5021 5.36769L32.375 4.66602L34.2479 3.96434C33.7789 2.7125 32.7476 1.79481 31.6861 1.13129C30.587 0.44429 29.216 -0.120211 27.6957 -0.57091C24.6475 -1.47456 20.7276 -2 16.5 -2V0ZM32.375 4.66602V6.66602H32.5V4.66602V2.66602H32.375V4.66602ZM32.5 4.66602H30.5V21.332H32.5H34.5V4.66602H32.5ZM32.5 21.332V19.332H32.376V21.332V23.332H32.5V21.332ZM32.376 21.332L30.5024 20.6323C30.479 20.6949 30.3001 21.0178 29.5678 21.4759C28.873 21.9104 27.8666 22.3482 26.561 22.7353C23.9574 23.5074 20.4317 24 16.5 24V26V28C20.7286 28 24.6496 27.4743 27.6982 26.5703C29.2187 26.1194 30.5898 25.5546 31.6888 24.8672C32.7503 24.2033 33.7816 23.2848 34.2496 22.0318L32.376 21.332ZM16.5 26V24C12.5683 24 9.04262 23.5074 6.43904 22.7353C5.13344 22.3482 4.12701 21.9104 3.43224 21.4759C2.69989 21.0178 2.52101 20.6949 2.49762 20.6323L0.624023 21.332L-1.24957 22.0318C-0.781582 23.2848 0.249693 24.2033 1.31116 24.8672C2.41022 25.5546 3.7813 26.1194 5.30181 26.5703C8.35044 27.4743 12.2714 28 16.5 28V26ZM0.624023 21.332V19.332H0.5V21.332V23.332H0.624023V21.332ZM0.5 21.332H2.5V4.66602H0.5H-1.5V21.332H0.5ZM0.5 4.66602V6.66602H0.625V4.66602V2.66602H0.5V4.66602ZM0.625 4.66602L2.49787 5.36769C2.52161 5.30433 2.70136 4.98116 3.43403 4.52321C4.12914 4.08873 5.1357 3.65113 6.44117 3.26412C9.04451 2.49236 12.5693 2 16.5 2V0V-2C12.2724 -2 8.3525 -1.47456 5.30427 -0.57091C3.78395 -0.120211 2.41303 0.44429 1.31391 1.13129C0.252353 1.79481 -0.778866 2.7125 -1.24787 3.96434L0.625 4.66602Z" fill="white" mask="url(#path-1-inside-1_2028_434)"/>
<path d="M16.5 1C20.8405 1 24.7286 1.58798 27.4971 2.51074C28.8866 2.9739 29.9396 3.5036 30.624 4.04297C31.3192 4.59091 31.4999 5.03441 31.5 5.33301C31.5 5.63163 31.3196 6.07583 30.624 6.62402C29.9396 7.16339 28.8866 7.69309 27.4971 8.15625C24.7286 9.07899 20.8405 9.66699 16.5 9.66699C12.1595 9.66699 8.27141 9.07899 5.50293 8.15625C4.11345 7.69309 3.06037 7.16339 2.37598 6.62402C1.68044 6.07583 1.5 5.63163 1.5 5.33301C1.50013 5.03441 1.68082 4.59091 2.37598 4.04297C3.06037 3.5036 4.11345 2.9739 5.50293 2.51074C8.27141 1.58798 12.1595 1 16.5 1Z" stroke="white" stroke-width="2"/>
<path d="M31.2692 8.66803C31.2692 11.7608 24.6568 14.268 16.4999 14.268C8.34312 14.268 1.73071 11.7608 1.73071 8.66803" stroke="white" stroke-linecap="round"/>
<path d="M31.2692 11.8674C31.2692 14.9602 24.6568 17.4674 16.4999 17.4674C8.34312 17.4674 1.73071 14.9602 1.73071 11.8674" stroke="white" stroke-linecap="round"/>
<path d="M31.2692 15.8666C31.2692 18.9594 24.6568 21.4666 16.4999 21.4666C8.34312 21.4666 1.73071 18.9594 1.73071 15.8666" stroke="white" stroke-linecap="round"/>
</svg>
